<?xml version="1.0"?>
<svg xmlns="http://www.w3.org/2000/svg" height="512px" viewBox="0 0 496 496" width="512px"><path d="m464.496094 122.191406c-2.121094-6.335937-4.65625-12.480468-7.566406-18.34375l16.964843-27.535156-54.199219-54.199219-27.535156 16.957031c-5.871094-2.917968-12.007812-5.445312-18.34375-7.566406l-7.496094-31.503906h-76.640624l-7.488282 31.503906c-6.335937 2.121094-12.480468 4.65625-18.34375 7.566406l-27.535156-16.964843-54.199219 54.199219 16.964844 27.535156c-2.917969 5.871094-5.445313 12.007812-7.566406 18.34375l-24.449219 5.816406h-127.0625c-22.054688 0-40 17.945312-40 40v240c0 22.054688 17.945312 40 40 40h104v32h-32v16h272v-16h-32v-32h104c22.054688 0 40-17.945312 40-40v-278.320312zm-128.496094 357.808594h-176v-32h176zm120-48h-416c-13.230469 0-24-10.769531-24-24v-8h464v8c0 13.230469-10.769531 24-24 24zm24-48h-464v-216c0-13.230469 10.769531-24 24-24h120v62.320312l31.503906 7.488282c2.121094 6.335937 4.65625 12.480468 7.566406 18.34375l-16.964843 27.535156 54.199219 54.199219 27.535156-16.964844c5.863281 2.917969 12.007812 5.445313 18.34375 7.566406l7.496094 31.511719h76.640624l7.488282-31.503906c6.335937-2.121094 12.480468-4.65625 18.34375-7.566406l27.535156 16.964843 54.199219-54.199219-16.964844-27.535156c2.917969-5.871094 5.445313-12.007812 7.566406-18.34375l15.511719-3.695312zm0-190.320312-28.105469 6.679687-1.328125 4.417969c-2.511718 8.390625-5.832031 16.445312-9.871094 23.925781l-2.191406 4.066406 15.128906 24.550781-36.320312 36.320313-24.550781-15.128906-4.066407 2.191406c-7.472656 4.03125-15.519531 7.351563-23.917968 9.871094l-4.417969 1.328125-6.679687 28.097656h-51.359376l-6.679687-28.105469-4.417969-1.328125c-8.398437-2.519531-16.453125-5.839844-23.917968-9.871094l-4.066407-2.191406-24.550781 15.128906-36.320312-36.320312 15.128906-24.550781-2.191406-4.066407c-4.03125-7.480468-7.351563-15.527343-9.871094-23.925781l-1.328125-4.417969-28.105469-6.671874v-51.359376l28.105469-6.679687 1.328125-4.417969c2.511718-8.390625 5.832031-16.445312 9.871094-23.925781l2.191406-4.066406-15.128906-24.550781 36.320312-36.320313 24.550781 15.128906 4.066407-2.191406c7.480468-4.03125 15.527343-7.351563 23.925781-9.871094l4.417969-1.328125 6.671874-28.097656h51.359376l6.679687 28.105469 4.417969 1.328125c8.390625 2.511718 16.445312 5.832031 23.925781 9.871094l4.066406 2.191406 24.550781-15.128906 36.320313 36.320312-15.128906 24.550781 2.191406 4.066407c4.03125 7.480468 7.351563 15.527343 9.871094 23.925781l1.328125 4.417969 28.097656 6.671874zm0 0" fill="#0f0f0f"/><path d="m328 56c-61.761719 0-112 50.238281-112 112s50.238281 112 112 112 112-50.238281 112-112-50.238281-112-112-112zm0 208c-52.9375 0-96-43.0625-96-96s43.0625-96 96-96 96 43.0625 96 96-43.0625 96-96 96zm0 0" fill="#0f0f0f"/><path d="m248 160h16v16h-16zm0 0" fill="#0f0f0f"/><path d="m280 160h128v16h-128zm0 0" fill="#0f0f0f"/><path d="m296 192h96v16h-96zm0 0" fill="#0f0f0f"/><path d="m264 192h16v16h-16zm0 0" fill="#0f0f0f"/><path d="m296 128h96v16h-96zm0 0" fill="#0f0f0f"/><path d="m264 128h16v16h-16zm0 0" fill="#0f0f0f"/><path d="m176 272h-48v48h-16v-112h-48v112h-16v-152h-16v168h160v-16h-16zm-32 16h16v32h-16zm-64-64h16v96h-16zm0 0" fill="#0f0f0f"/></svg>
