<?xml version="1.0"?>
<svg xmlns="http://www.w3.org/2000/svg" xmlns:xlink="http://www.w3.org/1999/xlink" version="1.1" id="Layer_1" x="0px" y="0px" viewBox="0 0 512 512" style="enable-background:new 0 0 512 512;" xml:space="preserve" width="512px" height="512px" class=""><g><path style="fill:#E2E7F2;" d="M103.694,384.257h384.774c8.854,0,16.032-7.178,16.032-16.032V79.644  c0-8.854-7.178-16.032-16.032-16.032H103.694c-8.854,0-16.032,7.178-16.032,16.032v288.581  C87.661,377.079,94.839,384.257,103.694,384.257z" data-original="#E2E7F2" class=""/><rect x="408.31" y="111.709" style="fill:#5A55ED" width="32.06" height="192.39" data-original="#B4E66E" class="active-path" data-old_color="#5954ED"/><rect x="344.18" y="175.839" style="fill:#DAE169;" width="32.06" height="128.26" data-original="#DAE169" class=""/><rect x="215.92" y="207.899" style="fill:#FF9670;" width="32.06" height="96.19" data-original="#FF9670"/><rect x="280.05" y="143.769" style="fill:#FFDC64;" width="32.06" height="160.32" data-original="#FFDC64" class=""/><path style="fill:#5A4146;" d="M40.567,219.926v6.329c0,7.754,1.25,15.458,3.702,22.814l14.334,43.002h27.054v-99.2H67.621  C52.679,192.872,40.567,204.985,40.567,219.926z" data-original="#5A4146"/><path style="fill:#694B4B;" d="M164.045,238.66l-15.26,53.411L76.64,228.944c-9.961,0-18.036-8.075-18.036-18.036l0,0  c0-14.942,12.113-27.054,27.054-27.054h81.163v34.986C166.821,225.544,165.886,232.215,164.045,238.66z" data-original="#694B4B"/><rect x="74.835" y="320.129" style="fill:#E6AF78;" width="57.716" height="50.591" data-original="#E6AF78"/><path style="fill:#D29B6E;" d="M74.835,345.814c8.922,3.625,18.65,5.666,28.858,5.666s19.936-2.041,28.858-5.666v-25.686H74.835  V345.814z" data-original="#D29B6E"/><path style="fill:#FF507D;" d="M178.956,364.739l-46.408-13.258l-28.855,19.149l-28.858-19.15L28.43,364.739  c-12.389,3.54-20.93,14.863-20.93,27.748v55.899h192.387v-55.899C199.887,379.602,191.345,368.278,178.956,364.739z" data-original="#FF507D"/><path style="fill:#F0C087;" d="M103.694,328.144L103.694,328.144c-29.884,0-54.109-24.225-54.109-54.109V263.47  c0-4.784,1.9-9.371,5.283-12.754l16.353-16.353c3.463-3.463,8.198-5.454,13.093-5.3c28.828,0.909,54.344,7.085,68.293,20.708  c3.414,3.335,5.197,8,5.197,12.773v11.491C157.802,303.919,133.577,328.144,103.694,328.144z" data-original="#F0C087"/><path style="fill:#E6AF78;" d="M76.639,272.031c0-10.403,8.715-18.01,19.118-18.01c15.952,0,48.017,1.978,61.794,12.176  c-0.541-3.805-2.176-13.72-4.946-16.426c-13.948-13.623-39.465-19.799-68.293-20.708l-0.001,0.001l-0.001-0.001  c-4.894-0.154-9.629,1.838-13.091,5.3l-21.634,21.636v18.036c0,24.676,16.534,45.452,39.116,51.958  c-7.517-9.274-12.062-21.045-12.062-33.922C76.639,292.071,76.639,272.031,76.639,272.031z" data-original="#E6AF78"/><g>
	<path style="fill:#D23C69;" d="M45.977,421.149c0-7.654-3.04-14.994-8.452-20.406l-24.762-24.762   c-3.31,4.73-5.264,10.425-5.264,16.504v55.899h38.477L45.977,421.149L45.977,421.149z" data-original="#D23C69"/>
	<path style="fill:#D23C69;" d="M161.41,421.149c0-7.654,3.04-14.994,8.452-20.406l24.762-24.762   c3.31,4.73,5.264,10.425,5.264,16.504v55.899H161.41V421.149z" data-original="#D23C69"/>
</g><path d="M79.129,239.967v-1.696c16.066-2.295,28.78-0.412,36.939,1.735c9.862,2.595,15.409,6.125,15.562,6.223  c1.271,0.838,2.703,1.239,4.121,1.239c2.424,0,4.802-1.173,6.247-3.341c2.298-3.446,1.366-8.103-2.08-10.4  c-1.086-0.725-27.122-17.657-69.76-9.13c-3.506,0.701-6.029,3.779-6.029,7.354v8.016c0,4.142,3.357,7.5,7.5,7.5  S79.129,244.109,79.129,239.967z" data-original="#000000" class="" style="fill:#000000"/><path d="M186.916,363.367l-38.121-14.295c-3.313-1.242-5.537-4.453-5.537-7.989v-19.231c1.633-1.302,3.213-2.69,4.733-4.165  c12.456-12.088,19.315-28.302,19.315-45.655V257.77l2.146-4.293c3.84-7.68,5.869-16.277,5.869-24.863v-44.759  c0-4.142-3.357-7.5-7.5-7.5H84.295c-28.8,0-52.23,23.43-52.23,52.259c0,8.587,2.03,17.185,5.87,24.863l2.146,4.293v11.909  c0,20.629,9.436,39.283,24.048,51.451v19.952c0,3.537-2.225,6.748-5.536,7.989l-38.122,14.295C8.227,367.958,0,379.83,0,392.907  v55.479c0,4.142,3.357,7.5,7.5,7.5s7.5-3.358,7.5-7.5v-55.479c0-6.859,4.315-13.086,10.738-15.495l38.122-14.295  c2.063-0.774,3.963-1.837,5.684-3.112l26.649,19.987v68.396c0,4.142,3.357,7.5,7.5,7.5s7.5-3.358,7.5-7.5v-68.396l26.649-19.987  c1.721,1.276,3.621,2.339,5.685,3.113l38.121,14.295c6.423,2.409,10.738,8.636,10.738,15.495v55.479c0,4.142,3.357,7.5,7.5,7.5  s7.5-3.358,7.5-7.5v-55.479C207.387,379.83,199.16,367.958,186.916,363.367z M55.081,269.678v-13.679  c0-1.165-0.271-2.312-0.792-3.354l-2.938-5.877c-2.804-5.607-4.286-11.885-4.286-18.184c0-20.529,16.701-37.23,37.23-37.23h76.027  v37.259c0,6.27-1.481,12.548-4.285,18.155l-2.938,5.877c-0.521,1.042-0.792,2.189-0.792,3.354v16.032  c0,13.261-5.242,25.652-14.762,34.89c-9.516,9.233-22.055,14.101-35.354,13.7C76.215,319.842,55.081,296.989,55.081,269.678z   M101.742,335.615c0.66,0.02,1.317,0.03,1.975,0.03c8.565,0,16.864-1.691,24.541-4.905v10.343c0,2.279,0.347,4.505,0.977,6.628  l-25.542,19.156l-25.542-19.156c0.63-2.123,0.977-4.349,0.977-6.628v-10.63C86.136,333.545,93.76,335.375,101.742,335.615z" data-original="#000000" class="" style="fill:#000000"/><path d="M47.581,400.806c-4.143,0-7.5,3.358-7.5,7.5v40.081c0,4.142,3.357,7.5,7.5,7.5s7.5-3.358,7.5-7.5v-40.081  C55.081,404.164,51.724,400.806,47.581,400.806z" data-original="#000000" class="" style="fill:#000000"/><path d="M159.807,400.806c-4.143,0-7.5,3.358-7.5,7.5v40.081c0,4.142,3.357,7.5,7.5,7.5s7.5-3.358,7.5-7.5v-40.081  C167.307,404.164,163.949,400.806,159.807,400.806z" data-original="#000000" class="" style="fill:#000000"/><path d="M488.468,56.112H103.693c-12.976,0-23.532,10.557-23.532,23.532v72.143c0,4.142,3.357,7.5,7.5,7.5s7.5-3.358,7.5-7.5V79.644  c0-4.705,3.827-8.532,8.532-8.532h384.774c4.705,0,8.532,3.828,8.532,8.532v288.581c0,4.705-3.827,8.533-8.532,8.533H231.949  c-4.143,0-7.5,3.358-7.5,7.5s3.357,7.5,7.5,7.5h256.519c12.976,0,23.532-10.557,23.532-23.533V79.644  C512,66.668,501.443,56.112,488.468,56.112z" data-original="#000000" class="" style="fill:#000000"/><path d="M456.403,311.596c4.143,0,7.5-3.358,7.5-7.5s-3.357-7.5-7.5-7.5h-8.532V111.708c0-4.142-3.357-7.5-7.5-7.5h-32.064  c-4.143,0-7.5,3.358-7.5,7.5v184.887h-17.064V175.838c0-4.142-3.357-7.5-7.5-7.5h-32.064c-4.143,0-7.5,3.358-7.5,7.5v120.758  h-17.064V143.773c0-4.142-3.357-7.5-7.5-7.5h-32.064c-4.143,0-7.5,3.358-7.5,7.5v152.822h-17.065v-88.693c0-4.142-3.357-7.5-7.5-7.5  h-32.064c-4.143,0-7.5,3.358-7.5,7.5v88.693h-24.564c-4.143,0-7.5,3.358-7.5,7.5s3.357,7.5,7.5,7.5L456.403,311.596L456.403,311.596  z M415.807,119.208h17.064v177.387h-17.064V119.208z M351.678,183.338h17.064v113.258h-17.064V183.338z M287.549,151.273h17.064  v145.322h-17.064V151.273z M223.419,296.596v-81.193h17.064v81.193H223.419z" data-original="#000000" class="" style="fill:#000000"/><path d="M416.322,328.66c-4.143,0-7.5,3.358-7.5,7.5s3.357,7.5,7.5,7.5h16.032c4.143,0,7.5-3.358,7.5-7.5s-3.357-7.5-7.5-7.5  H416.322z" data-original="#000000" class="" style="fill:#000000"/><path d="M288.064,328.66c-4.143,0-7.5,3.358-7.5,7.5s3.357,7.5,7.5,7.5h16.032c4.143,0,7.5-3.358,7.5-7.5s-3.357-7.5-7.5-7.5  H288.064z" data-original="#000000" class="" style="fill:#000000"/><path d="M352.193,328.66c-4.143,0-7.5,3.358-7.5,7.5s3.357,7.5,7.5,7.5h16.032c4.143,0,7.5-3.358,7.5-7.5s-3.357-7.5-7.5-7.5  H352.193z" data-original="#000000" class="" style="fill:#000000"/><path d="M247.468,336.16c0-4.142-3.357-7.5-7.5-7.5h-16.032c-4.143,0-7.5,3.358-7.5,7.5s3.357,7.5,7.5,7.5h16.032  C244.11,343.66,247.468,340.302,247.468,336.16z" data-original="#000000" class="" style="fill:#000000"/></g> </svg>
