<?xml version="1.0"?>
<svg xmlns="http://www.w3.org/2000/svg" xmlns:xlink="http://www.w3.org/1999/xlink" version="1.1" id="Layer_1" x="0px" y="0px" viewBox="0 0 512 512" style="enable-background:new 0 0 512 512;" xml:space="preserve" width="512px" height="512px" class=""><g><path style="fill:#BCBABA" d="M82.581,388.129h412.903c9.122,0,16.516-7.395,16.516-16.516V74.322  c0-9.122-7.395-16.516-16.516-16.516H99.097c-9.122,0-16.516,7.395-16.516,16.516V388.129z" data-original="#E2E7F2" class="" data-old_color="#BDBBBB"/><path style="fill:#CACACA" d="M421.161,107.355h16.516c4.561,0,8.258,3.697,8.258,8.258v189.936h-33.032V115.613  C412.903,111.051,416.6,107.355,421.161,107.355z" data-original="#B4E66E" class="" data-old_color="#CACAC7"/><path style="fill:#DCDCDA" d="M355.097,173.419h16.516c4.561,0,8.258,3.697,8.258,8.258v123.871h-33.032V181.676  C346.839,177.117,350.536,173.419,355.097,173.419z" data-original="#DAE169" class="" data-old_color="#DBDBD9"/><path style="fill:#CAC6C6" d="M222.968,206.451h16.516c4.561,0,8.258,3.697,8.258,8.258v90.839H214.71V214.71  C214.71,210.148,218.407,206.451,222.968,206.451z" data-original="#FF9670" class="" data-old_color="#CCC7C7"/><path style="fill:#E1DCDC" d="M156.903,255.999h16.516c4.561,0,8.258,3.697,8.258,8.258v41.29h-33.032v-41.29  C148.645,259.697,152.342,255.999,156.903,255.999z" data-original="#FF507D" class="" data-old_color="#E0DBDB"/><path style="fill:#B1B0AF" d="M289.032,140.386h16.516c4.561,0,8.258,3.697,8.258,8.258v156.903h-33.032V148.645  C280.774,144.083,284.471,140.386,289.032,140.386z" data-original="#FFDC64" class="" data-old_color="#B2B1B0"/><g>
	<path style="fill:#FFFFFF;" d="M437.677,346.839h-16.516c-4.565,0-8.258-3.694-8.258-8.258s3.694-8.258,8.258-8.258h16.516   c4.565,0,8.258,3.694,8.258,8.258S442.242,346.839,437.677,346.839z" data-original="#FFFFFF" class=""/>
	<path style="fill:#FFFFFF;" d="M305.548,346.839h-16.516c-4.565,0-8.258-3.694-8.258-8.258s3.694-8.258,8.258-8.258h16.516   c4.565,0,8.258,3.694,8.258,8.258S310.113,346.839,305.548,346.839z" data-original="#FFFFFF" class=""/>
	<path style="fill:#FFFFFF;" d="M371.613,346.839h-16.516c-4.565,0-8.258-3.694-8.258-8.258s3.694-8.258,8.258-8.258h16.516   c4.565,0,8.258,3.694,8.258,8.258S376.177,346.839,371.613,346.839z" data-original="#FFFFFF" class=""/>
	<path style="fill:#FFFFFF;" d="M239.484,346.839h-16.516c-4.565,0-8.258-3.694-8.258-8.258s3.694-8.258,8.258-8.258h16.516   c4.565,0,8.258,3.694,8.258,8.258S244.048,346.839,239.484,346.839z" data-original="#FFFFFF" class=""/>
	<path style="fill:#FFFFFF;" d="M173.419,346.839h-16.516c-4.565,0-8.258-3.694-8.258-8.258s3.694-8.258,8.258-8.258h16.516   c4.565,0,8.258,3.694,8.258,8.258S177.984,346.839,173.419,346.839z" data-original="#FFFFFF" class=""/>
</g><path style="fill:#AFB9D2;" d="M462.452,313.806H140.387c-4.565,0-8.258-3.694-8.258-8.258c0-4.565,3.694-8.258,8.258-8.258h322.065  c4.565,0,8.258,3.694,8.258,8.258C470.71,310.113,467.016,313.806,462.452,313.806z" data-original="#AFB9D2" class=""/><path style="fill:#5A4146;" d="M29.729,221.315v6.954c0,8.521,1.374,16.986,4.068,25.07l15.751,47.253h29.729V191.587H59.458  C43.039,191.587,29.729,204.896,29.729,221.315z" data-original="#5A4146"/><path style="fill:#694B4B" d="M165.414,241.901l-16.769,58.692l-79.277-69.368c-10.946,0-19.819-8.873-19.819-19.819l0,0  c0-16.419,13.31-29.729,29.729-29.729h69.368c10.946,0,19.819,8.873,19.819,19.819v18.626  C168.465,227.488,167.438,234.818,165.414,241.901z" data-original="#694B4B" class=""/><rect x="69.37" y="330.32" style="fill:#DAD6D4" width="59.46" height="43.859" data-original="#E6AF78" class="" data-old_color="#D8D5D3"/><path style="fill:#CDCCCC" d="M69.368,348.526c9.191,3.734,19.213,5.837,29.729,5.837s20.538-2.102,29.729-5.837v-18.203H69.368  V348.526z" data-original="#D29B6E" class="" data-old_color="#CDCBCB"/><path style="fill:#E1DCDC" d="M176.631,368.022l-47.808-13.658L99.097,374.09l-29.729-19.728l-47.806,13.659  C8.799,371.668,0,383.334,0,396.607v47.677c0,5.473,4.437,9.91,9.91,9.91h178.374c5.473,0,9.91-4.437,9.91-9.91v-47.677  C198.194,383.333,189.394,371.668,176.631,368.022z" data-original="#FF507D" class="" data-old_color="#E0DBDB"/><polygon style="fill:#A9AAAD" points="109.006,454.194 89.187,454.194 94.142,374.182 104.052,374.182 " data-original="#5B5D6E" class="" data-old_color="#A3A4A9"/><path style="fill:#DAD6D4" d="M99.097,340.232L99.097,340.232c-32.838,0-59.458-26.62-59.458-59.458v-11.61  c0-5.256,2.088-10.298,5.805-14.014l17.97-17.97c3.805-3.805,9.009-5.993,14.387-5.824c31.677,0.999,59.717,7.786,75.044,22.755  c3.752,3.664,5.71,8.791,5.71,14.035v12.627C158.555,313.612,131.935,340.232,99.097,340.232z" data-original="#F0C087" class="" data-old_color="#CACACA"/><path style="fill:#DAD6D4" d="M69.368,271.622c0-11.431,9.6-20.518,21.008-19.79c20.006,1.276,49.691,4.62,67.903,13.38  c-0.595-4.181-2.391-8.127-5.435-11.101c-15.327-14.97-43.366-21.756-75.044-22.755l-0.001,0.001l-0.001-0.001  c-5.378-0.169-10.581,2.02-14.385,5.824l-17.969,17.969c-3.717,3.717-5.805,8.758-5.805,14.015v11.61  c0,27.116,18.169,49.946,42.983,57.095c-8.26-10.191-13.254-23.126-13.254-37.276C69.368,300.594,69.368,271.622,69.368,271.622z" data-original="#E6AF78" class="" data-old_color="#D8D5D3"/><g>
	<path style="fill:#F98E84" d="M39.639,426.135c0-7.885-3.132-15.446-8.707-21.022l-25.51-25.509   C2.013,384.478,0,390.344,0,396.607v47.677c0,5.473,4.437,9.91,9.91,9.91h29.729V426.135z" data-original="#D23C69" class="" data-old_color="#D23C69"/>
	<path style="fill:#F98E84" d="M158.555,426.135c0-7.885,3.132-15.446,8.707-21.022l25.509-25.509   c3.409,4.873,5.422,10.74,5.422,17.003v47.677c0,5.473-4.437,9.91-9.91,9.91h-29.729v-28.059H158.555z" data-original="#D23C69" class="" data-old_color="#D23C69"/>
</g><path style="fill:#464655" d="M104.877,394.001H93.316c-2.28,0-4.129-1.849-4.129-4.129v-15.78h19.819v15.78  C109.006,392.153,107.158,394.001,104.877,394.001z" data-original="#464655" class="active-path"/><g>
	<path style="fill:#F98E84" d="M99.097,374.09L82.3,386.921c-2.893,2.21-7.076,1.324-8.825-1.869l-15.067-27.516l6.065-9.251   c1.345-2.052,4.212-2.401,6.011-0.733L99.097,374.09z" data-original="#D23C69" class="" data-old_color="#D23C69"/>
	<path style="fill:#F98E84" d="M99.097,374.09l16.796,12.831c2.893,2.21,7.076,1.324,8.825-1.869l15.067-27.516l-6.065-9.251   c-1.345-2.052-4.212-2.401-6.011-0.733L99.097,374.09z" data-original="#D23C69" class="" data-old_color="#D23C69"/>
</g></g> </svg>
