<?xml version="1.0" encoding="iso-8859-1"?>
<!-- Generator: Adobe Illustrator 19.0.0, SVG Export Plug-In . SVG Version: 6.00 Build 0)  -->
<svg version="1.1" id="Capa_1" xmlns="http://www.w3.org/2000/svg" xmlns:xlink="http://www.w3.org/1999/xlink" x="0px" y="0px"
	 viewBox="0 0 512 512" style="enable-background:new 0 0 512 512;" xml:space="preserve">
<g>
	<g>
		<path d="M405.482,90.273c-23.357-40.811-66.868-66.164-113.551-66.165c-47.019,0-89.826,25-113.28,65.69
			c-8.465-2.877-17.298-4.332-26.344-4.332c-21.743,0-42.268,8.445-57.796,23.779c-13.832,13.66-22.333,31.432-24.346,50.627
			c-18.04,1.85-34.749,9.892-47.636,23.056C8.001,197.769,0,217.424,0,238.274c0,43.468,35.085,78.831,78.21,78.831h65.111
			c4.142,0,7.5-3.358,7.5-7.5c0-4.142-3.358-7.5-7.5-7.5H78.21c-34.854,0-63.21-28.634-63.21-63.831
			c0-34.705,27.959-63.329,62.326-63.806c4.034-0.056,7.301-3.293,7.394-7.327c0.412-17.912,7.633-34.683,20.332-47.223
			c12.702-12.544,29.484-19.452,47.256-19.452c9.29,0,18.302,1.876,26.788,5.577c3.633,1.585,7.872,0.069,9.676-3.46
			c20.021-39.152,59.549-63.475,103.16-63.475c41.317,0,79.84,22.46,100.533,58.616c2.057,3.595,6.639,4.841,10.234,2.784
			C406.294,98.45,407.54,93.868,405.482,90.273z"/>
	</g>
</g>
<g>
	<g>
		<path d="M429.618,159.444h-6.715c0.027-1.087,0.041-2.168,0.041-3.239c0-7.173-0.576-14.374-1.711-21.402
			c-0.661-4.089-4.507-6.866-8.601-6.207c-4.089,0.661-6.868,4.511-6.208,8.6c1.009,6.239,1.52,12.635,1.52,19.009
			c0,3.293-0.146,6.693-0.435,10.108c-0.177,2.091,0.531,4.161,1.952,5.706c1.42,1.545,3.423,2.425,5.521,2.425h14.635
			c34.855,0,63.211,28.634,63.211,63.83s-28.356,63.831-63.211,63.831H320.27c-4.142,0-7.5,3.358-7.5,7.5c0,4.142,3.358,7.5,7.5,7.5
			h109.348c43.126,0,78.211-35.363,78.211-78.831C507.829,194.806,472.744,159.444,429.618,159.444z"/>
	</g>
</g>
<g>
	<g>
		<path d="M190.38,253.484l-19.987-30.851c4.848-5.018,7.842-11.858,7.842-19.393c0-15.352-12.41-27.841-27.664-27.841
			c-15.254,0-27.665,12.49-27.665,27.841c0,15.352,12.41,27.842,27.665,27.842c2.368,0,4.666-0.302,6.861-0.868l20.359,31.427
			c0.707,1.091,1.513,3.817,1.513,5.118v93.234H11.52c-4.142,0-7.5,3.358-7.5,7.5c0,4.142,3.358,7.5,7.5,7.5h170.284
			c6.893-0.001,12.5-5.609,12.5-12.501v-95.734C194.304,262.575,192.654,256.993,190.38,253.484z M150.572,216.081
			c-6.984,0-12.665-5.761-12.665-12.842s5.681-12.841,12.665-12.841c6.983,0,12.664,5.761,12.664,12.841
			C163.236,210.32,157.555,216.081,150.572,216.081z"/>
	</g>
</g>
<g>
	<g>
		<path d="M333.312,175.398c-12.672,0-23.373,8.623-26.636,20.341h-53.852c-3.263-11.719-13.964-20.341-26.637-20.341
			c-15.254,0-27.664,12.49-27.664,27.841c0,12.271,7.932,22.705,18.904,26.403v175.417H136c-4.142,0-7.5,3.358-7.5,7.5
			c0,4.142,3.358,7.5,7.5,7.5h83.928c6.893,0,12.5-5.607,12.5-12.5V230.358c9.843-2.293,17.687-9.884,20.396-19.619h53.852
			c3.262,11.719,13.964,20.342,26.636,20.342c15.254,0,27.664-12.49,27.664-27.842C360.976,187.887,348.566,175.398,333.312,175.398
			z M226.187,216.081c-6.982,0-12.664-5.761-12.664-12.842s5.681-12.841,12.664-12.841c6.983,0,12.665,5.761,12.665,12.841
			C238.852,210.32,233.171,216.081,226.187,216.081z M333.311,216.081c-6.983,0-12.664-5.761-12.664-12.842
			c0-7.08,5.681-12.841,12.664-12.841c6.983,0,12.664,5.761,12.664,12.841C345.975,210.32,340.294,216.081,333.311,216.081z"/>
	</g>
</g>
<g>
	<g>
		<path d="M87.999,405.059H58.347v0c-3.225-11.823-13.88-20.342-26.65-20.342c-0.253,0-0.507,0.004-0.76,0.011
			C15.69,385.142,3.62,397.963,4.03,413.308C4.437,428.5,16.58,440.4,31.675,440.4c0.251,0,0.505-0.003,0.758-0.01
			c12.406-0.337,22.708-8.889,25.895-20.331h29.671c4.142,0,7.5-3.358,7.5-7.5C95.499,408.417,92.141,405.059,87.999,405.059z
			 M32.024,425.395l-0.35,0.004c-6.906,0-12.462-5.488-12.649-12.493c-0.189-7.08,5.337-12.995,12.321-13.185l0.351-0.005
			c6.905,0,12.46,5.488,12.648,12.494C44.534,419.29,39.007,425.205,32.024,425.395z"/>
	</g>
</g>
<g>
	<g>
		<path d="M504.5,452.55H165.891c-3.225-11.823-13.88-20.342-26.65-20.342c-0.252,0-0.507,0.004-0.76,0.011
			c-12.405,0.337-22.707,8.89-25.895,20.332H11.52c-4.142,0-7.5,3.358-7.5,7.5c0,4.142,3.358,7.5,7.5,7.5h101.046
			c3.226,11.822,13.882,20.341,26.652,20.341c0.251,0,0.505-0.003,0.758-0.01c12.406-0.337,22.708-8.889,25.896-20.331H504.5
			c4.143,0,7.5-3.358,7.5-7.5C512,455.908,508.643,452.55,504.5,452.55z M139.568,472.887l-0.35,0.004
			c-6.906,0-12.463-5.488-12.65-12.493c-0.189-7.081,5.338-12.996,12.321-13.185l0.351-0.005c6.905,0,12.46,5.488,12.648,12.494
			C152.078,466.782,146.551,472.697,139.568,472.887z"/>
	</g>
</g>
<g>
	<g>
		<path d="M504.5,359.992H392c-4.143,0-7.5,3.358-7.5,7.5c0,4.142,3.357,7.5,7.5,7.5h112.5c4.143,0,7.5-3.358,7.5-7.5
			C512,363.35,508.643,359.992,504.5,359.992z"/>
	</g>
</g>
<g>
	<g>
		<path d="M344.999,359.992h-57.851V285.82c11.351-3.472,19.636-14.1,19.636-26.642c0-15.352-12.41-27.841-27.665-27.841
			c-15.254,0-27.664,12.49-27.664,27.841c0,12.929,8.803,23.827,20.693,26.945v76.369c0,6.892,5.608,12.5,12.5,12.5h60.351
			c4.143,0,7.5-3.358,7.5-7.5C352.499,363.35,349.142,359.992,344.999,359.992z M279.119,272.019
			c-6.983,0-12.664-5.76-12.664-12.841s5.681-12.841,12.664-12.841c6.983,0,12.665,5.761,12.665,12.841
			C291.784,266.259,286.102,272.019,279.119,272.019z"/>
	</g>
</g>
<g>
	<g>
		<path d="M504.5,405.059h-29.003c-3.224-11.823-13.879-20.342-26.649-20.342c-0.253,0-0.508,0.004-0.761,0.011
			c-12.406,0.337-22.708,8.89-25.895,20.331H305.781c-3.225-11.823-13.879-20.342-26.65-20.342c-0.253,0-0.508,0.004-0.761,0.011
			c-15.246,0.415-27.316,13.235-26.907,28.58c0.407,15.192,12.55,27.092,27.644,27.092c0.252,0,0.506-0.003,0.759-0.01
			c12.406-0.337,22.708-8.889,25.896-20.331h116.411c3.225,11.822,13.88,20.341,26.651,20.341c0.252,0,0.506-0.003,0.759-0.01
			c12.406-0.337,22.708-8.889,25.894-20.331H504.5c4.143,0,7.5-3.358,7.5-7.5C512,408.417,508.643,405.059,504.5,405.059z
			 M279.459,425.395l-0.351,0.004c-6.905,0-12.462-5.488-12.649-12.493c-0.189-7.08,5.338-12.995,12.321-13.185l0.352-0.005
			c6.904,0,12.46,5.488,12.647,12.494C291.969,419.29,286.442,425.205,279.459,425.395z M449.176,425.395l-0.351,0.004
			c-6.906,0-12.462-5.487-12.649-12.493c-0.19-7.08,5.337-12.995,12.32-13.185l0.352-0.005c6.904,0,12.46,5.488,12.647,12.494
			C461.685,419.29,456.158,425.205,449.176,425.395z"/>
	</g>
</g>
<g>
	<g>
		<path d="M279.119,106.746c-15.254,0-27.664,12.49-27.664,27.841c0,15.352,12.41,27.841,27.664,27.841
			c15.255,0.001,27.665-12.489,27.665-27.841S294.374,106.746,279.119,106.746z M279.119,147.428
			c-6.983,0-12.664-5.76-12.664-12.841s5.681-12.841,12.664-12.841c6.983,0,12.665,5.761,12.665,12.841
			C291.784,141.668,286.102,147.428,279.119,147.428z"/>
	</g>
</g>
<g>
</g>
<g>
</g>
<g>
</g>
<g>
</g>
<g>
</g>
<g>
</g>
<g>
</g>
<g>
</g>
<g>
</g>
<g>
</g>
<g>
</g>
<g>
</g>
<g>
</g>
<g>
</g>
<g>
</g>
</svg>
