<?xml version="1.0"?>
<svg xmlns="http://www.w3.org/2000/svg" height="512px" viewBox="0 0 496 496" width="512px"><path d="m192 144h16v16h-16zm0 0" fill="#1b1c1c"/><path d="m224 144h16v16h-16zm0 0" fill="#1b1c1c"/><path d="m288 240h16v16h-16zm0 0" fill="#1b1c1c"/><path d="m256 240h16v16h-16zm0 0" fill="#1b1c1c"/><path d="m288 336h16v16h-16zm0 0" fill="#1b1c1c"/><path d="m256 336h16v16h-16zm0 0" fill="#1b1c1c"/><path d="m32 32h80v16h-80zm0 0" fill="#1b1c1c"/><path d="m32 64h80v16h-80zm0 0" fill="#1b1c1c"/><path d="m32 448h80v16h-80zm0 0" fill="#1b1c1c"/><path d="m32 416h80v16h-80zm0 0" fill="#1b1c1c"/><path d="m384 32h80v16h-80zm0 0" fill="#1b1c1c"/><path d="m384 64h80v16h-80zm0 0" fill="#1b1c1c"/><path d="m392 240c22.054688 0 40-17.945312 40-40v-88h64v-112h-144v112h64v88c0 13.230469-10.769531 24-24 24h-57.472656c-2.414063-6.777344-7.75-12.113281-14.527344-14.527344v-18.953125c9.289062-3.3125 16-12.113281 16-22.527343v-32c0-13.230469-10.769531-24-24-24h-128c-13.230469 0-24 10.769531-24 24v32c0 10.414062 6.710938 19.214843 16 22.527343v18.953125c-6.777344 2.414063-12.113281 7.75-14.527344 14.527344h-57.472656c-13.230469 0-24-10.769531-24-24v-88h64v-112h-144v112h64v88c0 22.054688 17.945312 40 40 40h56v16h-56c-22.054688 0-40 17.945312-40 40v88h-64v112h144v-112h-64v-88c0-13.230469 10.769531-24 24-24h57.472656c2.414063 6.777344 7.75 12.113281 14.527344 14.527344v18.953125c-9.289062 3.3125-16 12.113281-16 22.527343v32c0 13.230469 10.769531 24 24 24h128c13.230469 0 24-10.769531 24-24v-32c0-10.414062-6.710938-19.214843-16-22.527343v-18.953125c6.777344-2.414063 12.113281-7.75 14.527344-14.527344h57.472656c13.230469 0 24 10.769531 24 24v88h-64v112h144v-112h-64v-88c0-22.054688-17.945312-40-40-40h-56v-16zm-24-224h112v80h-112zm-352 0h112v80h-112zm112 464h-112v-80h112zm352 0h-112v-80h112zm-176-288v16h-112v-16zm-128-56c0-4.40625 3.585938-8 8-8h128c4.414062 0 8 3.59375 8 8v32c0 4.40625-3.585938 8-8 8h-128c-4.414062 0-8-3.59375-8-8zm16 168v-16h112v16zm128 56c0 4.414062-3.585938 8-8 8h-128c-4.414062 0-8-3.585938-8-8v-32c0-4.414062 3.585938-8 8-8h128c4.414062 0 8 3.585938 8 8zm0-96c0 4.414062-3.585938 8-8 8h-128c-4.414062 0-8-3.585938-8-8v-32c0-4.40625 3.585938-8 8-8h128c4.414062 0 8 3.59375 8 8zm0 0" fill="#1b1c1c"/><path d="m384 448h80v16h-80zm0 0" fill="#1b1c1c"/><path d="m384 416h80v16h-80zm0 0" fill="#1b1c1c"/></svg>
