<?xml version="1.0" encoding="iso-8859-1"?>
<!-- Generator: Adobe Illustrator 19.0.0, SVG Export Plug-In . SVG Version: 6.00 Build 0)  -->
<svg version="1.1" id="Capa_1" xmlns="http://www.w3.org/2000/svg" xmlns:xlink="http://www.w3.org/1999/xlink" x="0px" y="0px"
	 viewBox="0 0 512.001 512.001" style="enable-background:new 0 0 512.001 512.001;" xml:space="preserve">
<g>
	<g>
		<path d="M77.854,326.035c-4.225,0-7.649,3.425-7.649,7.649v22.984c0,4.225,3.424,7.649,7.649,7.649s7.649-3.425,7.649-7.649
			v-22.984C85.503,329.46,82.079,326.035,77.854,326.035z"/>
	</g>
</g>
<g>
	<g>
		<path d="M77.854,279.283c-4.225,0-7.649,3.425-7.649,7.649v11.16c0,4.225,3.424,7.649,7.649,7.649s7.649-3.425,7.649-7.649v-11.16
			C85.503,282.707,82.079,279.283,77.854,279.283z"/>
	</g>
</g>
<g>
	<g>
		<path d="M149.145,279.283c-4.225,0-7.649,3.425-7.649,7.649v69.735c0,4.225,3.424,7.649,7.649,7.649
			c4.225,0,7.649-3.425,7.649-7.649v-69.735C156.795,282.707,153.371,279.283,149.145,279.283z"/>
	</g>
</g>
<g>
	<g>
		<path d="M220.421,279.283c-4.225,0-7.649,3.425-7.649,7.649v69.735c0,4.225,3.424,7.649,7.649,7.649
			c4.225,0,7.649-3.425,7.649-7.649v-69.735C228.071,282.707,224.646,279.283,220.421,279.283z"/>
	</g>
</g>
<g>
	<g>
		<path d="M291.697,339.033c-4.225,0-7.649,3.425-7.649,7.649v9.985c0,4.225,3.424,7.649,7.649,7.649s7.649-3.425,7.649-7.649
			v-9.985C299.347,342.459,295.922,339.033,291.697,339.033z"/>
	</g>
</g>
<g>
	<g>
		<path d="M291.697,279.283c-4.225,0-7.649,3.425-7.649,7.649v23.739c0,4.225,3.424,7.649,7.649,7.649s7.649-3.425,7.649-7.649
			v-23.739C299.347,282.707,295.922,279.283,291.697,279.283z"/>
	</g>
</g>
<g>
	<g>
		<path d="M505.159,298.658l-45.729-46.294c-4.424-4.478-10.571-7.045-16.864-7.045h-74.745v-0.803
			c0-5.747-2.505-10.906-6.463-14.489v-40.561c0-2.942-0.719-5.876-2.079-8.487c-0.001-0.001-0.001-0.001-0.002-0.002l-13.36-25.615
			c5.396-1.994,9.261-7.175,9.261-13.256v-9.522c0-7.798-6.344-14.141-14.141-14.141h-89.218c-7.798,0-14.142,6.344-14.142,14.141
			v9.522c0,6.08,3.865,11.262,9.262,13.256l-13.087,25.09v-11.201c0-15.386-5.83-30.009-16.416-41.175
			c-7.879-8.311-12.219-19.196-12.219-30.649V85.999c1.158-1.595,1.85-3.549,1.85-5.666V26.477c0-4.727-3.41-8.666-7.897-9.503
			c-0.517-0.11-1.052-0.171-1.602-0.171h-0.175h-37.008h-0.175c-0.55,0-1.085,0.061-1.602,0.171
			c-4.487,0.838-7.896,4.777-7.896,9.503v53.856c0,2.117,0.691,4.07,1.849,5.665v11.429c0,11.453-4.34,22.338-12.219,30.649
			c-9.358,9.871-14.991,22.444-16.174,35.856c-3.212-5.3-7.704-9.797-13.173-13.038c-9.646-5.715-21.26-6.901-31.861-3.253
			l-2.618,0.901c-2.551-18.677,0.737-38.094,0.799-38.452c0.732-4.16-2.046-8.126-6.206-8.859c-4.154-0.733-8.126,2.045-8.861,6.205
			c-0.154,0.874-2.369,13.807-1.955,29.509L42.665,85.736c-1.375-3.994-5.725-6.118-9.722-4.744
			c-3.995,1.375-6.119,5.728-4.744,9.723l14.377,41.772c-10.361-16.211-20.922-26.466-31.464-30.507
			c-3.943-1.512-8.368,0.459-9.88,4.404s0.459,8.369,4.404,9.88c13.58,5.206,27.055,27.745,35.202,44.553l-3.281,1.129
			c-10.603,3.649-19.026,11.73-23.111,22.171c-4.086,10.442-3.382,22.094,1.928,31.968l4.766,8.861h-1.573
			C8.778,224.948,0,233.725,0,244.514v193.166c0,10.345,8.416,18.761,18.761,18.761h26.286
			c5.561,22.236,25.701,38.757,49.636,38.757s44.076-16.521,49.637-38.757h235.03c5.561,22.236,25.702,38.757,49.637,38.757
			s44.076-16.521,49.637-38.757h11.57c12.024,0,21.807-9.782,21.807-21.807V315.316C512,309.038,509.571,303.123,505.159,298.658z
			 M252.974,133.741h0.001h86.904v7.208h-6.117h-74.67h-6.118V133.741z M246.795,189.465c0-0.49,0.12-0.978,0.347-1.414
			l16.589-31.803h65.395l16.587,31.801c0.227,0.436,0.348,0.925,0.348,1.416v35.483h-10.035V202.73
			c0-6.652-5.412-12.065-12.065-12.065h-55.066c-6.652,0-12.065,5.412-12.065,12.065v22.217h-10.035V189.465z M320.726,205.965
			v18.983h-48.598v-18.983H320.726z M167.857,32.102h22.06v42.607h-22.06V32.102z M139.22,169.251h0.001
			c0-11.453,4.34-22.338,12.219-30.649c10.587-11.166,16.416-25.789,16.416-41.175v-7.419h22.06v7.419
			c0,15.386,5.83,30.009,16.416,41.175c7.879,8.312,12.219,19.197,12.219,30.649v14.936h-46.88c-8.334,0-15.114,6.78-15.114,15.114
			v25.648H139.22V169.251z M218.552,199.486v25.463h-46.695v-25.463H218.552z M28.692,189.694
			c2.446-6.254,7.492-11.094,13.842-13.279l41.575-14.308c6.352-2.184,13.307-1.475,19.083,1.948
			c5.777,3.423,9.74,9.183,10.873,15.802l7.714,45.091H63.69l16.806-5.784c3.995-1.375,6.119-5.728,4.744-9.722
			c-1.374-3.993-5.725-6.119-9.722-4.744l-40.417,13.909l-5.254-9.767C26.666,202.926,26.245,195.948,28.692,189.694z
			 M44.13,436.126c-0.013,0.086-0.026,0.173-0.039,0.259c-0.111,0.744-0.208,1.492-0.286,2.244c-0.009,0.084-0.02,0.167-0.028,0.25
			c-0.075,0.752-0.138,1.506-0.18,2.265H18.761c-1.909,0-3.462-1.553-3.462-3.462v-11.869H46.85
			C45.581,429.134,44.677,432.587,44.13,436.126z M130.332,447.949c-1.957,17.941-17.195,31.951-35.65,31.951
			c-18.453,0-33.691-14.01-35.649-31.951c-0.144-1.329-0.218-2.646-0.218-3.916c0-0.851,0.041-1.696,0.1-2.538
			c0.015-0.216,0.03-0.432,0.049-0.646c0.069-0.792,0.16-1.579,0.281-2.359c0.036-0.229,0.082-0.454,0.122-0.681
			c0.1-0.572,0.215-1.14,0.342-1.705c0.069-0.304,0.134-0.609,0.21-0.91c0.167-0.66,0.356-1.314,0.561-1.963
			c0.115-0.364,0.241-0.724,0.367-1.083c0.141-0.401,0.292-0.799,0.448-1.195c0.213-0.541,0.438-1.075,0.676-1.602
			c0.177-0.393,0.358-0.784,0.549-1.171c0.177-0.357,0.357-0.713,0.545-1.063c0.308-0.573,0.628-1.139,0.968-1.697
			c0.187-0.307,0.386-0.606,0.582-0.906c0.263-0.403,0.535-0.802,0.815-1.196c5.156-7.26,12.935-12.53,21.951-14.402
			c0.052-0.011,0.104-0.022,0.156-0.032c0.487-0.099,0.979-0.185,1.473-0.264c0.2-0.031,0.4-0.06,0.6-0.088
			c0.396-0.056,0.793-0.109,1.193-0.152c0.341-0.036,0.684-0.063,1.027-0.089c0.291-0.023,0.58-0.051,0.873-0.067
			c0.656-0.035,1.316-0.057,1.979-0.057c0.663,0,1.323,0.022,1.979,0.057c0.292,0.016,0.581,0.044,0.871,0.066
			c0.344,0.027,0.687,0.053,1.028,0.09c0.4,0.043,0.796,0.096,1.192,0.152c0.201,0.028,0.402,0.057,0.602,0.088
			c0.493,0.079,0.984,0.165,1.47,0.263c0.054,0.011,0.107,0.022,0.16,0.033c9.019,1.873,16.801,7.148,21.957,14.413
			c0.276,0.389,0.545,0.782,0.804,1.18c0.197,0.303,0.397,0.604,0.586,0.913c0.34,0.558,0.661,1.125,0.969,1.698
			c0.187,0.349,0.366,0.702,0.542,1.057c0.194,0.392,0.377,0.789,0.557,1.187c0.234,0.52,0.456,1.046,0.665,1.579
			c0.158,0.402,0.311,0.806,0.454,1.213c0.125,0.356,0.25,0.712,0.364,1.073c0.205,0.65,0.395,1.306,0.562,1.968
			c0.076,0.3,0.141,0.604,0.21,0.907c0.128,0.567,0.244,1.137,0.344,1.711c0.04,0.225,0.086,0.449,0.121,0.675
			c0.121,0.781,0.212,1.569,0.281,2.361c0.019,0.214,0.034,0.43,0.049,0.645c0.059,0.842,0.1,1.686,0.1,2.538
			C130.55,445.303,130.476,446.619,130.332,447.949z M352.523,441.142H145.769c-0.042-0.758-0.105-1.513-0.18-2.265
			c-0.008-0.084-0.019-0.166-0.028-0.25c-0.078-0.751-0.175-1.497-0.286-2.241c-0.013-0.089-0.027-0.177-0.04-0.265
			c-0.546-3.537-1.451-6.989-2.719-10.311h210.007V441.142z M352.524,410.514h-219.19c-0.244-0.28-0.503-0.544-0.752-0.819
			c-0.035-0.038-0.07-0.076-0.105-0.115c-0.513-0.561-1.035-1.112-1.571-1.648c-0.077-0.078-0.157-0.153-0.235-0.23
			c-0.502-0.495-1.008-0.985-1.529-1.458c-0.185-0.169-0.377-0.329-0.564-0.496c-0.426-0.376-0.85-0.755-1.288-1.116
			c-8.141-6.749-18.401-11.022-29.617-11.671c-0.082-0.005-0.164-0.014-0.246-0.019c-0.908-0.048-1.822-0.075-2.742-0.075
			c-0.92,0-1.834,0.027-2.742,0.075c-0.082,0.004-0.164,0.014-0.246,0.019c-11.219,0.65-21.48,4.924-29.622,11.675
			c-0.423,0.349-0.831,0.715-1.243,1.077c-0.203,0.179-0.41,0.353-0.61,0.535c-0.512,0.465-1.01,0.947-1.504,1.434
			c-0.087,0.086-0.176,0.169-0.261,0.256c-0.529,0.529-1.045,1.073-1.551,1.627c-0.042,0.046-0.085,0.092-0.127,0.138
			c-0.247,0.271-0.502,0.532-0.743,0.809H15.299V244.514c0-2.353,1.914-4.268,4.268-4.268h328.688c0.261,0,0.514,0.032,0.763,0.077
			c0.052,0.01,0.105,0.017,0.157,0.029c0.22,0.049,0.432,0.117,0.639,0.199c0.081,0.032,0.161,0.07,0.24,0.107
			c1.454,0.681,2.47,2.148,2.47,3.857V410.514z M464.637,447.941c-1.954,17.945-17.193,31.959-35.651,31.959
			s-33.697-14.014-35.651-31.959c-0.143-1.335-0.217-2.65-0.217-3.908c0-19.777,16.09-35.867,35.868-35.867
			s35.868,16.09,35.868,35.867C464.854,445.29,464.78,446.605,464.637,447.941z M496.704,434.634h-0.003
			c0,3.589-2.919,6.508-6.508,6.508h-10.122c-0.027-0.476-0.075-0.947-0.114-1.42c-0.028-0.332-0.046-0.666-0.08-0.996
			c-0.06-0.581-0.141-1.155-0.22-1.73c-0.036-0.261-0.062-0.525-0.102-0.784c-0.128-0.832-0.276-1.659-0.444-2.477
			c-0.006-0.029-0.014-0.056-0.02-0.085c-0.163-0.79-0.344-1.573-0.543-2.349c-0.065-0.254-0.143-0.502-0.212-0.754
			c-0.149-0.546-0.298-1.093-0.465-1.632c-0.094-0.304-0.202-0.601-0.302-0.903c-0.159-0.48-0.314-0.962-0.487-1.436
			c-0.116-0.319-0.246-0.632-0.368-0.949c-0.173-0.448-0.343-0.897-0.529-1.339c-0.135-0.323-0.283-0.639-0.425-0.958
			c-0.19-0.427-0.377-0.855-0.578-1.276c-0.154-0.322-0.318-0.636-0.478-0.954c-0.206-0.408-0.409-0.818-0.626-1.22
			c-0.171-0.319-0.353-0.631-0.531-0.946c-0.221-0.391-0.441-0.782-0.672-1.167c-0.189-0.314-0.386-0.622-0.581-0.931
			c-0.236-0.375-0.472-0.75-0.718-1.119c-0.204-0.306-0.416-0.606-0.626-0.907c-0.252-0.361-0.505-0.722-0.766-1.076
			c-0.22-0.298-0.446-0.589-0.671-0.882c-0.267-0.346-0.534-0.691-0.81-1.03c-0.234-0.288-0.474-0.571-0.714-0.854
			c-0.282-0.332-0.565-0.663-0.856-0.988c-0.247-0.277-0.499-0.548-0.752-0.819c-0.297-0.318-0.595-0.634-0.9-0.944
			c-0.261-0.266-0.526-0.527-0.792-0.787c-0.31-0.302-0.622-0.602-0.94-0.896c-0.274-0.254-0.552-0.505-0.831-0.753
			c-0.323-0.287-0.649-0.57-0.979-0.848c-0.286-0.242-0.575-0.48-0.867-0.716c-0.336-0.271-0.675-0.538-1.018-0.8
			c-0.298-0.228-0.597-0.454-0.9-0.676c-0.349-0.256-0.702-0.506-1.058-0.753c-0.309-0.214-0.618-0.426-0.931-0.634
			c-0.361-0.239-0.726-0.472-1.093-0.702c-0.319-0.2-0.638-0.399-0.962-0.592c-0.374-0.223-0.752-0.438-1.131-0.651
			c-0.328-0.184-0.655-0.368-0.987-0.545c-0.385-0.206-0.776-0.403-1.167-0.599c-0.336-0.168-0.672-0.338-1.012-0.499
			c-0.398-0.188-0.8-0.367-1.203-0.545c-0.343-0.152-0.686-0.306-1.033-0.45c-0.409-0.17-0.823-0.329-1.237-0.488
			c-0.351-0.136-0.701-0.274-1.056-0.402c-0.42-0.151-0.845-0.29-1.27-0.431c-0.356-0.118-0.711-0.24-1.071-0.35
			c-0.435-0.133-0.876-0.252-1.315-0.374c-0.358-0.099-0.713-0.203-1.074-0.295c-0.45-0.114-0.906-0.213-1.361-0.315
			c-0.359-0.08-0.715-0.167-1.076-0.24c-0.47-0.095-0.946-0.173-1.42-0.254c-0.352-0.061-0.702-0.129-1.056-0.183
			c-0.501-0.076-1.009-0.132-1.515-0.193c-0.335-0.04-0.666-0.09-1.002-0.123c-0.568-0.057-1.142-0.093-1.715-0.131
			c-0.279-0.019-0.556-0.048-0.836-0.062c-0.857-0.043-1.719-0.066-2.586-0.066s-1.729,0.023-2.586,0.066
			c-0.281,0.014-0.557,0.043-0.836,0.062c-0.573,0.038-1.147,0.074-1.715,0.131c-0.336,0.034-0.668,0.083-1.002,0.123
			c-0.506,0.061-1.013,0.118-1.515,0.193c-0.355,0.053-0.704,0.122-1.056,0.183c-0.474,0.082-0.95,0.159-1.42,0.254
			c-0.361,0.073-0.717,0.16-1.076,0.24c-0.455,0.102-0.91,0.201-1.361,0.315c-0.361,0.091-0.717,0.196-1.074,0.295
			c-0.44,0.122-0.88,0.241-1.315,0.374c-0.36,0.11-0.714,0.232-1.071,0.35c-0.425,0.141-0.85,0.279-1.27,0.431
			c-0.355,0.128-0.705,0.266-1.057,0.402c-0.413,0.159-0.827,0.318-1.235,0.488c-0.348,0.145-0.691,0.298-1.034,0.451
			c-0.403,0.178-0.805,0.356-1.203,0.545c-0.34,0.161-0.676,0.331-1.012,0.499c-0.391,0.196-0.782,0.393-1.167,0.599
			c-0.332,0.177-0.659,0.361-0.987,0.545c-0.379,0.213-0.757,0.428-1.131,0.651c-0.324,0.193-0.643,0.392-0.962,0.592
			c-0.367,0.23-0.732,0.463-1.093,0.702c-0.313,0.208-0.623,0.42-0.931,0.634c-0.356,0.247-0.709,0.497-1.058,0.753
			c-0.303,0.222-0.602,0.448-0.9,0.676c-0.343,0.263-0.682,0.529-1.018,0.8c-0.292,0.236-0.581,0.474-0.867,0.716
			c-0.33,0.279-0.656,0.562-0.979,0.848c-0.28,0.248-0.557,0.499-0.831,0.753c-0.317,0.294-0.63,0.594-0.94,0.896
			c-0.267,0.26-0.531,0.522-0.792,0.787c-0.305,0.31-0.604,0.626-0.9,0.944c-0.253,0.271-0.505,0.543-0.752,0.819
			c-0.29,0.325-0.574,0.655-0.856,0.988c-0.24,0.283-0.48,0.566-0.714,0.854c-0.275,0.339-0.543,0.684-0.81,1.03
			c-0.226,0.293-0.452,0.584-0.671,0.882c-0.261,0.354-0.514,0.715-0.766,1.076c-0.211,0.301-0.422,0.601-0.626,0.907
			c-0.246,0.368-0.481,0.744-0.718,1.119c-0.195,0.31-0.393,0.617-0.581,0.931c-0.231,0.384-0.451,0.776-0.672,1.167
			c-0.178,0.315-0.359,0.627-0.531,0.946c-0.216,0.401-0.419,0.81-0.624,1.217c-0.161,0.319-0.326,0.635-0.48,0.958
			c-0.2,0.419-0.387,0.846-0.576,1.271c-0.142,0.32-0.29,0.638-0.426,0.962c-0.186,0.442-0.356,0.891-0.529,1.339
			c-0.122,0.316-0.252,0.629-0.368,0.949c-0.173,0.474-0.328,0.956-0.487,1.436c-0.1,0.301-0.208,0.599-0.302,0.903
			c-0.167,0.539-0.315,1.086-0.465,1.632c-0.069,0.252-0.147,0.501-0.212,0.754c-0.199,0.776-0.38,1.559-0.543,2.349
			c-0.006,0.029-0.014,0.056-0.02,0.085c-0.168,0.819-0.315,1.645-0.444,2.477c-0.04,0.259-0.066,0.523-0.102,0.784
			c-0.079,0.575-0.16,1.149-0.22,1.73c-0.034,0.33-0.052,0.664-0.08,0.996c-0.04,0.473-0.088,0.943-0.114,1.42h-10.079V260.616
			h74.745c2.231,0,4.411,0.911,5.98,2.499l45.728,46.293c0,0.001,0.001,0.001,0.001,0.001c1.564,1.583,2.425,3.68,2.425,5.906
			V434.634z"/>
	</g>
</g>
<g>
	<g>
		<path d="M428.986,419.571c-13.488,0-24.462,10.974-24.462,24.462c0,13.489,10.974,24.462,24.462,24.462
			c13.488,0,24.462-10.974,24.462-24.462C453.448,430.545,442.474,419.571,428.986,419.571z M428.986,453.196
			c-5.053,0-9.163-4.111-9.163-9.163c0-5.053,4.111-9.163,9.163-9.163s9.163,4.111,9.163,9.163
			C438.149,449.085,434.039,453.196,428.986,453.196z"/>
	</g>
</g>
<g>
	<g>
		<path d="M94.682,419.571c-13.488,0-24.462,10.974-24.462,24.462c0,13.489,10.974,24.462,24.462,24.462
			s24.462-10.974,24.462-24.462C119.144,430.545,108.17,419.571,94.682,419.571z M94.682,453.196c-5.053,0-9.163-4.111-9.163-9.163
			c0-5.053,4.111-9.163,9.163-9.163c5.053,0,9.163,4.111,9.163,9.163C103.846,449.085,99.735,453.196,94.682,453.196z"/>
	</g>
</g>
<g>
	<g>
		<path d="M480.342,314.775l-35.185-35.619c-2.665-2.697-6.368-4.244-10.158-4.244h-40.658c-7.874,0-14.28,6.406-14.28,14.28v60.844
			c0,7.874,6.406,14.28,14.28,14.28h75.842c7.874,0,14.28-6.406,14.28-14.28v-25.226C484.463,321.028,483,317.465,480.342,314.775z
			 M469.164,349.019L469.164,349.019H395.36v-58.806h39.214l34.59,35.017V349.019z"/>
	</g>
</g>
<g>
</g>
<g>
</g>
<g>
</g>
<g>
</g>
<g>
</g>
<g>
</g>
<g>
</g>
<g>
</g>
<g>
</g>
<g>
</g>
<g>
</g>
<g>
</g>
<g>
</g>
<g>
</g>
<g>
</g>
</svg>
