<?xml version="1.0"?>
<svg xmlns="http://www.w3.org/2000/svg" height="512px" viewBox="0 -8 480 480" width="512px" class=""><g><path d="m24 8h432c8.835938 0 16 7.164062 16 16v288c0 8.835938-7.164062 16-16 16h-432c-8.835938 0-16-7.164062-16-16v-288c0-8.835938 7.164062-16 16-16zm0 0" fill="#bebec2" data-original="#BEBEC2" class=""/><path d="m40 40h400v256h-400zm0 0" fill="#55e4ea" data-original="#55E4EA" class="" style="fill:#FCFFFF" data-old_color="#FBFFFF"/><path d="m443.839844 82.398438c-1.226563-3.824219-2.777344-7.535157-4.640625-11.09375l-2.695313-5.199219 13.03125-13.035157-22.625-22.605468-13.03125 13.03125-5.199218-2.695313c-3.554688-1.859375-7.261719-3.414062-11.078126-4.648437l-5.601562-1.753906v-18.398438h-32v18.398438l-5.601562 1.777343c-3.824219 1.230469-7.539063 2.785157-11.101563 4.648438l-5.199219 2.695312-13.007812-13.054687-22.625 22.625 13.03125 13.03125-2.695313 5.199218c-1.863281 3.558594-3.414062 7.269532-4.640625 11.09375l-1.761718 5.585938h-18.398438v32h18.398438l1.777343 5.601562c1.226563 3.824219 2.78125 7.535157 4.640625 11.09375l2.695313 5.199219-13.03125 13.035157 22.625 22.621093 13.03125-13.03125 5.199219 2.695313c3.558593 1.863281 7.273437 3.414062 11.097656 4.640625l5.597656 1.777343v18.367188h32v-18.398438l5.601562-1.777343c3.824219-1.226563 7.535157-2.78125 11.09375-4.640625l5.203126-2.695313 13.03125 13.03125 22.625-22.625-13.035157-13.03125 2.695313-5.199219c1.863281-3.558593 3.414062-7.273437 4.640625-11.097656l1.714843-5.566406h18.398438v-32h-18.398438zm-67.839844 63.546874c-23.164062 0-41.945312-18.78125-41.945312-41.945312s18.78125-41.945312 41.945312-41.945312 41.945312 18.78125 41.945312 41.945312c-.027343 23.152344-18.792968 41.917969-41.945312 41.945312zm0 0" fill="#ff5023" data-original="#FF5023" class="" style="fill:#F98E84" data-old_color="#FF5023"/><path d="m401.945312 104c0 14.328125-11.617187 25.945312-25.945312 25.945312s-25.945312-11.617187-25.945312-25.945312 11.617187-25.945312 25.945312-25.945312 25.945312 11.617187 25.945312 25.945312zm0 0" fill="#ffda44" data-original="#FFDA44" class="" style="fill:#DDDAD6" data-old_color="#DFDBD7"/><path d="m80 80h144v32h-144zm0 0" fill="#ffda44" data-original="#FFDA44" class="" style="fill:#DDDAD6" data-old_color="#DFDBD7"/><path d="m456 69.296875 16.207031-16.207031-45.296875-45.257813-16.207031 16.207031c-.894531-.390624-1.800781-.800781-2.703125-1.136718v-22.902344h-64v22.902344c-.902344.363281-1.808594.746094-2.703125 1.136718l-16.207031-16.207031-45.257813 45.257813 16.207031 16.207031c-.390624.894531-.800781 1.800781-1.136718 2.703125h-22.902344v64h22.902344c.363281.902344.746094 1.808594 1.136718 2.703125l-16.207031 16.207031 45.257813 45.257813 16.207031-16.167969c.894531.390625 1.800781.800781 2.703125 1.136719v22.863281h64v-22.902344c.902344-.363281 1.808594-.746094 2.703125-1.136718l16.207031 16.207031 45.257813-45.257813-16.167969-16.207031c.390625-.894531.800781-1.800781 1.136719-2.703125h22.863281v-64h-22.902344c-.363281-.902344-.746094-1.808594-1.097656-2.703125zm8 50.703125h-18.398438l-1.777343 5.601562c-1.226563 3.824219-2.78125 7.535157-4.640625 11.09375l-2.695313 5.199219 13.03125 13.035157-22.625 22.621093-13.03125-13.03125-5.199219 2.695313c-3.558593 1.863281-7.273437 3.414062-11.097656 4.640625l-5.566406 1.746093v18.398438h-32v-18.398438l-5.601562-1.777343c-3.824219-1.226563-7.535157-2.78125-11.09375-4.640625l-5.199219-2.695313-13.035157 13.03125-22.621093-22.625 13.03125-13.03125-2.695313-5.199219c-1.863281-3.558593-3.414062-7.273437-4.640625-11.097656l-1.746093-5.566406h-18.398438v-32h18.398438l1.777343-5.601562c1.226563-3.824219 2.78125-7.535157 4.640625-11.09375l2.695313-5.199219-13.03125-13.035157 22.625-22.621093 13.03125 13.03125 5.199219-2.695313c3.550781-1.855468 7.25-3.40625 11.0625-4.632812l5.601562-1.753906v-18.398438h32v18.398438l5.601562 1.777343c3.824219 1.230469 7.539063 2.785157 11.101563 4.648438l5.199219 2.695312 13.035156-13.03125 22.621094 22.625-13.03125 13.03125 2.695312 5.199219c1.863282 3.558594 3.414063 7.273438 4.640625 11.097656l1.777344 5.597656h18.359375zm0 0" fill="#ff9811" data-original="#FF9811"/><path d="m72 72h160v48h-160zm0 0" fill="#2b7275" data-original="#2B7275" class="active-path" style="fill:#8BA8EF" data-old_color="#D6DAD6"/><path d="m8 296h464v16c0 8.835938-7.164062 16-16 16h-432c-8.835938 0-16-7.164062-16-16zm0 0" fill="#b5b4ba" data-original="#B5B4BA" class=""/><g fill="#231f20"><path d="m464 320h-448v-304h280v-16h-280c-8.835938 0-16 7.164062-16 16v304c0 8.835938 7.164062 16 16 16h184v80h-80v48h240v-48h-80v-80h184c8.835938 0 16-7.164062 16-16v-136h-16zm-248 16h48v80h-48zm128 96v16h-208v-16zm0 0" data-original="#000000" class="" style="fill:#222222" data-old_color="#212121"/><path d="m79.335938 32h-47.335938v47.335938h16v-31.335938h31.335938zm0 0" data-original="#000000" class="" style="fill:#222222" data-old_color="#212121"/><path d="m448 256h-16v32h-392v16h408zm0 0" data-original="#000000" class="" style="fill:#222222" data-old_color="#212121"/><path d="m64 128h176v-64h-176zm16-48h144v32h-144zm0 0" data-original="#000000" class="" style="fill:#222222" data-old_color="#212121"/><path d="m64 144h176v16h-176zm0 0" data-original="#000000" class="" style="fill:#222222" data-old_color="#212121"/><path d="m457.097656 72c-.363281-.902344-.746094-1.808594-1.136718-2.703125l16.207031-16.207031-45.257813-45.257813-16.207031 16.207031c-.894531-.390624-1.800781-.800781-2.703125-1.136718v-22.902344h-64v22.902344c-.902344.363281-1.808594.746094-2.703125 1.136718l-16.207031-16.207031-45.257813 45.257813 16.207031 16.207031c-.390624.894531-.800781 1.800781-1.136718 2.703125h-22.902344v64h22.902344c.363281.902344.746094 1.808594 1.136718 2.703125l-16.207031 16.207031 45.257813 45.257813 16.207031-16.167969c.894531.390625 1.800781.800781 2.703125 1.136719v22.863281h64v-22.902344c.902344-.363281 1.808594-.746094 2.703125-1.136718l16.207031 16.207031 45.257813-45.257813-16.167969-16.207031c.390625-.894531.800781-1.800781 1.136719-2.703125h22.863281v-64zm6.902344 48h-18.398438l-1.777343 5.601562c-1.226563 3.824219-2.78125 7.535157-4.640625 11.09375l-2.695313 5.199219 13.03125 13.035157-22.625 22.621093-13.03125-13.03125-5.199219 2.695313c-3.558593 1.863281-7.273437 3.414062-11.097656 4.640625l-5.566406 1.746093v18.398438h-32v-18.398438l-5.601562-1.777343c-3.824219-1.226563-7.535157-2.78125-11.09375-4.640625l-5.199219-2.695313-13.035157 13.03125-22.621093-22.625 13.03125-13.03125-2.695313-5.199219c-1.863281-3.558593-3.414062-7.273437-4.640625-11.097656l-1.746093-5.566406h-18.398438v-32h18.398438l1.777343-5.601562c1.226563-3.824219 2.78125-7.535157 4.640625-11.09375l2.695313-5.199219-13.03125-13.035157 22.625-22.621093 13.03125 13.03125 5.199219-2.695313c3.550781-1.855468 7.25-3.40625 11.0625-4.632812l5.601562-1.753906v-18.398438h32v18.398438l5.601562 1.777343c3.824219 1.230469 7.539063 2.785157 11.101563 4.648438l5.199219 2.695312 13.035156-13.03125 22.621094 22.625-13.03125 13.03125 2.695312 5.199219c1.863282 3.558594 3.414063 7.273438 4.640625 11.097656l1.777344 5.597656h18.359375zm0 0" data-original="#000000" class="" style="fill:#222222" data-old_color="#212121"/><path d="m376 62.054688c-23.164062 0-41.945312 18.78125-41.945312 41.945312s18.78125 41.945312 41.945312 41.945312 41.945312-18.78125 41.945312-41.945312c-.027343-23.152344-18.792968-41.917969-41.945312-41.945312zm0 67.890624c-14.328125 0-25.945312-11.617187-25.945312-25.945312s11.617187-25.945312 25.945312-25.945312 25.945312 11.617187 25.945312 25.945312c-.019531 14.320312-11.625 25.925781-25.945312 25.945312zm0 0" data-original="#000000" class="" style="fill:#222222" data-old_color="#212121"/><path d="m64 176h176v16h-176zm0 0" data-original="#000000" class="" style="fill:#222222" data-old_color="#212121"/><path d="m64 208h32v16h-32zm0 0" data-original="#000000" class="" style="fill:#222222" data-old_color="#212121"/><path d="m112 208h32v16h-32zm0 0" data-original="#000000" class="" style="fill:#222222" data-old_color="#212121"/><path d="m160 208h32v16h-32zm0 0" data-original="#000000" class="" style="fill:#222222" data-old_color="#212121"/><path d="m208 208h32v16h-32zm0 0" data-original="#000000" class="" style="fill:#222222" data-old_color="#212121"/></g><path d="m216 336h48v80h-48zm0 0" fill="#565659" data-original="#565659" class="" style="fill:#CBCBCE" data-old_color="#CCCCCF"/><path d="m200 432h-64v16h208v-16zm0 0" fill="#565659" data-original="#565659" class="" style="fill:#CBCBCE" data-old_color="#CCCCCF"/></g> </svg>
