<?xml version="1.0"?>
<svg xmlns="http://www.w3.org/2000/svg" xmlns:xlink="http://www.w3.org/1999/xlink" version="1.1" id="Capa_1" x="0px" y="0px" viewBox="0 0 512 512" style="enable-background:new 0 0 512 512;" xml:space="preserve" width="512px" height="512px"><g><g>
	<g>
		<path d="M504.485,168.83c4.151,0,7.515-3.365,7.515-7.515V31.562c0-4.15-3.364-7.515-7.515-7.515H7.515    C3.365,24.047,0,27.412,0,31.562v448.877c0,4.15,3.365,7.515,7.515,7.515h496.971c4.151,0,7.515-3.365,7.515-7.515V195.883    c0-4.15-3.364-7.515-7.515-7.515c-4.151,0-7.515,3.365-7.515,7.515v277.041H15.029V103.202h481.941v58.114    C496.971,165.465,500.334,168.83,504.485,168.83z M15.029,88.172V39.076h481.941v49.096H15.029z" data-original="#000000" class="active-path" data-old_color="#fd4f57" fill="#fd4f57"/>
	</g>
</g><g>
	<g>
		<path d="M479.366,60.749c-2.525-6-11.397-6.089-13.887,0c-1.246,3.048-0.342,6.63,2.211,8.707    c2.419,1.968,5.914,2.221,8.593,0.616C479.459,68.168,480.73,64.166,479.366,60.749z" data-original="#000000" class="active-path" data-old_color="#fd4f57" fill="#fd4f57"/>
	</g>
</g><g>
	<g>
		<path d="M447.304,60.749c-1.241-2.951-4.289-4.86-7.498-4.616c-3.132,0.24-5.848,2.456-6.682,5.487    c-0.796,2.892,0.232,6.044,2.587,7.904c2.603,2.057,6.379,2.131,9.062,0.179C447.572,67.667,448.58,63.947,447.304,60.749z" data-original="#000000" class="active-path" data-old_color="#fd4f57" fill="#fd4f57"/>
	</g>
</g><g>
	<g>
		<path d="M415.241,60.749c-1.215-2.889-4.167-4.789-7.313-4.63c-3.131,0.159-5.916,2.319-6.818,5.323    c-0.898,2.987,0.171,6.288,2.657,8.172c2.646,2.006,6.415,2.006,9.062,0C415.545,67.556,416.497,63.898,415.241,60.749z" data-original="#000000" class="active-path" data-old_color="#fd4f57" fill="#fd4f57"/>
	</g>
</g><g>
	<g>
		<path d="M408.297,400.783h-8.712C395.663,324.981,332.76,264.517,256,264.517s-139.663,60.464-143.585,136.266h-8.712    c-4.15,0-7.515,3.365-7.515,7.515v32.063c0,4.15,3.365,7.515,7.515,7.515h304.595c4.151,0,7.515-3.365,7.515-7.515v-32.063    C415.812,404.147,412.449,400.783,408.297,400.783z M256,279.546c68.472,0,124.631,53.726,128.535,121.237h-257.07    C131.369,333.272,187.528,279.546,256,279.546z M400.783,432.845H111.217v-17.033h289.566V432.845z" data-original="#000000" class="active-path" data-old_color="#fd4f57" fill="#fd4f57"/>
	</g>
</g><g>
	<g>
		<path d="M256,216.423c-12.983,0-23.546,10.563-23.546,23.546s10.563,23.546,23.546,23.546s23.546-10.563,23.546-23.546    S268.983,216.423,256,216.423z M256,248.485c-4.696,0-8.517-3.82-8.517-8.517s3.82-8.517,8.517-8.517s8.517,3.82,8.517,8.517    S260.696,248.485,256,248.485z" data-original="#000000" class="active-path" data-old_color="#fd4f57" fill="#fd4f57"/>
	</g>
</g><g>
	<g>
		<path d="M262.115,172.196c4.795-6.713,13.72-19.208-0.801-33.729c-2.936-2.935-7.693-2.934-10.628,0    c-2.935,2.935-2.935,7.693,0,10.627c5.332,5.332,4.415,7.064-0.802,14.365c-4.794,6.713-13.72,19.208,0.802,33.729    c3.056,3.056,8.217,2.851,11.026-0.431c2.518-2.941,2.337-7.461-0.399-10.196C255.982,181.229,256.9,179.498,262.115,172.196z" data-original="#000000" class="active-path" data-old_color="#fd4f57" fill="#fd4f57"/>
	</g>
</g><g>
	<g>
		<path d="M324.01,172.196c4.795-6.713,13.72-19.208-0.801-33.729c-2.936-2.935-7.693-2.935-10.628,0    c-2.935,2.935-2.935,7.693,0,10.627c5.332,5.332,4.415,7.064-0.801,14.365c-4.796,6.713-13.721,19.208,0.8,33.729    c3.057,3.056,8.217,2.851,11.028-0.431c2.518-2.941,2.337-7.461-0.399-10.196C317.877,181.229,318.795,179.498,324.01,172.196z" data-original="#000000" class="active-path" data-old_color="#fd4f57" fill="#fd4f57"/>
	</g>
</g><g>
	<g>
		<path d="M195.758,172.196c4.794-6.713,13.72-19.208-0.802-33.729c-2.935-2.935-7.693-2.935-10.627,0    c-2.935,2.935-2.935,7.693,0,10.627c5.332,5.332,4.415,7.064-0.802,14.365c-4.794,6.713-13.719,19.209,0.802,33.729    c2.895,2.895,7.732,2.895,10.627,0c2.935-2.935,2.935-7.693,0-10.627C189.624,181.229,190.542,179.498,195.758,172.196z" data-original="#000000" class="active-path" data-old_color="#fd4f57" fill="#fd4f57"/>
	</g>
</g><g>
	<g>
		<path d="M323.972,334.32l-61.599-36.683c-5.223-3.108-11.962,1.222-11.317,7.254l7.612,71.289    c0.582,5.449,6.901,8.494,11.529,5.529l13.918-8.921l13.247,20.665c2.208,3.443,6.934,4.481,10.382,2.271l13.497-8.652    c3.442-2.207,4.481-6.935,2.271-10.381l-13.249-20.666l13.919-8.922C328.8,344.141,328.685,337.128,323.972,334.32z     M305.959,379.016l-13.247-20.666c-1.075-1.678-2.774-2.86-4.721-3.285c-0.531-0.116-1.069-0.173-1.606-0.173    c-1.427,0-2.836,0.407-4.056,1.188l-10.008,6.416l-4.726-44.254l38.239,22.771l-10.009,6.416c-1.677,1.075-2.86,2.773-3.285,4.72    c-0.426,1.947-0.061,3.984,1.015,5.661l13.249,20.666L305.959,379.016z" data-original="#000000" class="active-path" data-old_color="#fd4f57" fill="#fd4f57"/>
	</g>
</g></g> </svg>
