<?xml version="1.0" encoding="iso-8859-1"?>
<!-- Generator: Adobe Illustrator 19.0.0, SVG Export Plug-In . SVG Version: 6.00 Build 0)  -->
<svg version="1.1" id="Capa_1" xmlns="http://www.w3.org/2000/svg" xmlns:xlink="http://www.w3.org/1999/xlink" x="0px" y="0px"
	 viewBox="0 0 512 512" style="enable-background:new 0 0 512 512;" xml:space="preserve">
<g>
	<g>
		<g>
			<path d="M382.152,0H129.848C94.287,0,65.355,28.923,65.355,64.485v383.039c0,35.562,28.932,64.476,64.494,64.476h252.295
				c35.562,0,64.494-28.914,64.503-64.476V64.485C446.645,28.923,417.713,0,382.152,0z M413.871,447.524
				c0,17.484-14.226,31.719-31.719,31.719H129.848c-17.492,0-31.728-14.235-31.719-31.728V64.476
				c0-17.483,14.226-31.719,31.719-31.719v0.009h252.304c17.483,0,31.719,14.226,31.719,31.719V447.524z"/>
			<path d="M384.317,382.276H127.692c-9.044,0-16.383,7.331-16.383,16.383s7.331,16.383,16.383,16.383h256.617
				c9.052,0,16.401-7.331,16.401-16.383S393.37,382.276,384.317,382.276z"/>
			<path d="M384.317,75.241H127.692c-9.044,0-16.383,7.331-16.383,16.383s7.331,16.383,16.383,16.383h256.617
				c9.052,0,16.401-7.331,16.401-16.383S393.37,75.241,384.317,75.241z"/>
			<path d="M275.006,432.259h-38.029c-9.044,0-16.383,7.331-16.383,16.383s7.331,16.383,16.383,16.383h38.029
				c9.052,0,16.392-7.331,16.392-16.383S284.058,432.259,275.006,432.259z"/>
			<path d="M180.115,155.159c-9.044,0-16.383,7.331-16.383,16.383v44.756c0,19.413,10.418,39.946,38.375,45.655v67.81
				c0,9.052,7.331,16.383,16.383,16.383s16.392-7.331,16.383-16.383v-67.805c27.965-5.701,38.384-26.241,38.384-45.66v-44.756
				c0-9.052-7.339-16.383-16.383-16.383s-16.383,7.331-16.383,16.383v44.756c0,3.428-0.009,8.321-5.618,11.443v-56.199
				c0-9.052-7.34-16.383-16.383-16.383c-9.044,0-16.383,7.331-16.383,16.383v56.191c-5.601-3.123-5.609-8.01-5.609-11.435v-44.756
				C196.498,162.49,189.159,155.159,180.115,155.159z"/>
			<path d="M333.18,346.146c9.044,0,16.374-7.331,16.383-16.383V171.542c0-9.052-7.331-16.383-16.383-16.383
				c-23.634,0-40.097,22.516-40.097,42.724v49.247c0,9.052,7.339,16.383,16.392,16.383c2.627,0,5.121-0.612,7.322-1.713v67.964
				C316.797,338.816,324.128,346.146,333.18,346.146z"/>
		</g>
	</g>
</g>
<g>
</g>
<g>
</g>
<g>
</g>
<g>
</g>
<g>
</g>
<g>
</g>
<g>
</g>
<g>
</g>
<g>
</g>
<g>
</g>
<g>
</g>
<g>
</g>
<g>
</g>
<g>
</g>
<g>
</g>
</svg>
